<svg xmlns="http://www.w3.org/2000/svg" width="1013" height="1446" viewBox="0 0 1013 1446" font-family='"PingFang SC","Hiragino Sans GB","Microsoft YaHei","Noto Sans CJK SC","Source Han Sans SC",system-ui,-apple-system,"Segoe UI",sans-serif'>
<rect width="100%" height="100%" fill="#ffffff"/>
<path d="M 296.7 857.9 C 319.7 857.9, 319.7 370.7, 342.7 370.7" fill="none" stroke="hsl(12.0, 58%, 62%)" stroke-width="2.6" stroke-linecap="round"/>
<path d="M 440.1 370.7 C 460.6 370.7, 460.6 154.7, 481.1 154.7" fill="none" stroke="hsl(12.0, 58%, 62%)" stroke-width="1.9" stroke-linecap="round"/>
<path d="M 557.6 154.7 C 575.6 154.7, 575.6 110.3, 593.6 110.3" fill="none" stroke="hsl(12.0, 58%, 62%)" stroke-width="1.7" stroke-linecap="round"/>
<path d="M 648.6 110.3 C 664.1 110.3, 664.1 86.1, 679.6 86.1" fill="none" stroke="hsl(12.0, 58%, 62%)" stroke-width="1.6" stroke-linecap="round"/>
<path d="M 758.1 86.1 C 771.1 86.1, 771.1 66.0, 784.1 66.0" fill="none" stroke="hsl(12.0, 58%, 62%)" stroke-width="1.4" stroke-linecap="round"/>
<path d="M 863.8 66.0 C 874.8 66.0, 874.8 52.8, 885.8 52.8" fill="none" stroke="hsl(12.0, 58%, 62%)" stroke-width="1.2" stroke-linecap="round"/>
<path d="M 863.8 66.0 C 874.8 66.0, 874.8 79.2, 885.8 79.2" fill="none" stroke="hsl(12.0, 58%, 62%)" stroke-width="1.2" stroke-linecap="round"/>
<path d="M 758.1 86.1 C 771.1 86.1, 771.1 106.2, 784.1 106.2" fill="none" stroke="hsl(12.0, 58%, 62%)" stroke-width="1.4" stroke-linecap="round"/>
<path d="M 648.6 110.3 C 664.1 110.3, 664.1 134.5, 679.6 134.5" fill="none" stroke="hsl(12.0, 58%, 62%)" stroke-width="1.6" stroke-linecap="round"/>
<path d="M 557.6 154.7 C 575.6 154.7, 575.6 199.0, 593.6 199.0" fill="none" stroke="hsl(12.0, 58%, 62%)" stroke-width="1.7" stroke-linecap="round"/>
<path d="M 648.6 199.0 C 664.1 199.0, 664.1 163.5, 679.6 163.5" fill="none" stroke="hsl(12.0, 58%, 62%)" stroke-width="1.6" stroke-linecap="round"/>
<path d="M 648.6 199.0 C 664.1 199.0, 664.1 192.5, 679.6 192.5" fill="none" stroke="hsl(12.0, 58%, 62%)" stroke-width="1.6" stroke-linecap="round"/>
<path d="M 648.6 199.0 C 664.1 199.0, 664.1 234.5, 679.6 234.5" fill="none" stroke="hsl(12.0, 58%, 62%)" stroke-width="1.6" stroke-linecap="round"/>
<path d="M 730.6 234.5 C 743.6 234.5, 743.6 220.8, 756.6 220.8" fill="none" stroke="hsl(12.0, 58%, 62%)" stroke-width="1.4" stroke-linecap="round"/>
<path d="M 730.6 234.5 C 743.6 234.5, 743.6 248.2, 756.6 248.2" fill="none" stroke="hsl(12.0, 58%, 62%)" stroke-width="1.4" stroke-linecap="round"/>
<path d="M 440.1 370.7 C 460.6 370.7, 460.6 400.8, 481.1 400.8" fill="none" stroke="hsl(12.0, 58%, 62%)" stroke-width="1.9" stroke-linecap="round"/>
<path d="M 535.1 400.8 C 553.1 400.8, 553.1 310.5, 571.1 310.5" fill="none" stroke="hsl(12.0, 58%, 62%)" stroke-width="1.7" stroke-linecap="round"/>
<path d="M 657.7 310.5 C 673.2 310.5, 673.2 289.5, 688.7 289.5" fill="none" stroke="hsl(12.0, 58%, 62%)" stroke-width="1.6" stroke-linecap="round"/>
<path d="M 765.2 289.5 C 778.2 289.5, 778.2 275.8, 791.2 275.8" fill="none" stroke="hsl(12.0, 58%, 62%)" stroke-width="1.4" stroke-linecap="round"/>
<path d="M 765.2 289.5 C 778.2 289.5, 778.2 303.2, 791.2 303.2" fill="none" stroke="hsl(12.0, 58%, 62%)" stroke-width="1.4" stroke-linecap="round"/>
<path d="M 657.7 310.5 C 673.2 310.5, 673.2 331.5, 688.7 331.5" fill="none" stroke="hsl(12.0, 58%, 62%)" stroke-width="1.6" stroke-linecap="round"/>
<path d="M 535.1 400.8 C 553.1 400.8, 553.1 375.0, 571.1 375.0" fill="none" stroke="hsl(12.0, 58%, 62%)" stroke-width="1.7" stroke-linecap="round"/>
<path d="M 630.2 375.0 C 645.7 375.0, 645.7 360.5, 661.2 360.5" fill="none" stroke="hsl(12.0, 58%, 62%)" stroke-width="1.6" stroke-linecap="round"/>
<path d="M 630.2 375.0 C 645.7 375.0, 645.7 389.5, 661.2 389.5" fill="none" stroke="hsl(12.0, 58%, 62%)" stroke-width="1.6" stroke-linecap="round"/>
<path d="M 535.1 400.8 C 553.1 400.8, 553.1 433.0, 571.1 433.0" fill="none" stroke="hsl(12.0, 58%, 62%)" stroke-width="1.7" stroke-linecap="round"/>
<path d="M 710.5 433.0 C 726.0 433.0, 726.0 418.5, 741.5 418.5" fill="none" stroke="hsl(12.0, 58%, 62%)" stroke-width="1.6" stroke-linecap="round"/>
<path d="M 710.5 433.0 C 726.0 433.0, 726.0 447.5, 741.5 447.5" fill="none" stroke="hsl(12.0, 58%, 62%)" stroke-width="1.6" stroke-linecap="round"/>
<path d="M 535.1 400.8 C 553.1 400.8, 553.1 491.0, 571.1 491.0" fill="none" stroke="hsl(12.0, 58%, 62%)" stroke-width="1.7" stroke-linecap="round"/>
<path d="M 657.7 491.0 C 673.2 491.0, 673.2 476.5, 688.7 476.5" fill="none" stroke="hsl(12.0, 58%, 62%)" stroke-width="1.6" stroke-linecap="round"/>
<path d="M 657.7 491.0 C 673.2 491.0, 673.2 505.5, 688.7 505.5" fill="none" stroke="hsl(12.0, 58%, 62%)" stroke-width="1.6" stroke-linecap="round"/>
<path d="M 440.1 370.7 C 460.6 370.7, 460.6 586.8, 481.1 586.8" fill="none" stroke="hsl(12.0, 58%, 62%)" stroke-width="1.9" stroke-linecap="round"/>
<path d="M 542.3 586.8 C 560.3 586.8, 560.3 549.0, 578.3 549.0" fill="none" stroke="hsl(12.0, 58%, 62%)" stroke-width="1.7" stroke-linecap="round"/>
<path d="M 633.3 549.0 C 648.8 549.0, 648.8 534.5, 664.3 534.5" fill="none" stroke="hsl(12.0, 58%, 62%)" stroke-width="1.6" stroke-linecap="round"/>
<path d="M 633.3 549.0 C 648.8 549.0, 648.8 563.5, 664.3 563.5" fill="none" stroke="hsl(12.0, 58%, 62%)" stroke-width="1.6" stroke-linecap="round"/>
<path d="M 542.3 586.8 C 560.3 586.8, 560.3 593.5, 578.3 593.5" fill="none" stroke="hsl(12.0, 58%, 62%)" stroke-width="1.7" stroke-linecap="round"/>
<path d="M 542.3 586.8 C 560.3 586.8, 560.3 624.5, 578.3 624.5" fill="none" stroke="hsl(12.0, 58%, 62%)" stroke-width="1.7" stroke-linecap="round"/>
<path d="M 296.7 857.9 C 319.7 857.9, 319.7 773.5, 342.7 773.5" fill="none" stroke="hsl(72.0, 58%, 62%)" stroke-width="2.6" stroke-linecap="round"/>
<path d="M 440.1 773.5 C 460.6 773.5, 460.6 698.0, 481.1 698.0" fill="none" stroke="hsl(72.0, 58%, 62%)" stroke-width="1.9" stroke-linecap="round"/>
<path d="M 546.8 698.0 C 564.8 698.0, 564.8 669.0, 582.8 669.0" fill="none" stroke="hsl(72.0, 58%, 62%)" stroke-width="1.7" stroke-linecap="round"/>
<path d="M 637.8 669.0 C 653.3 669.0, 653.3 654.5, 668.8 654.5" fill="none" stroke="hsl(72.0, 58%, 62%)" stroke-width="1.6" stroke-linecap="round"/>
<path d="M 637.8 669.0 C 653.3 669.0, 653.3 683.5, 668.8 683.5" fill="none" stroke="hsl(72.0, 58%, 62%)" stroke-width="1.6" stroke-linecap="round"/>
<path d="M 546.8 698.0 C 564.8 698.0, 564.8 727.0, 582.8 727.0" fill="none" stroke="hsl(72.0, 58%, 62%)" stroke-width="1.7" stroke-linecap="round"/>
<path d="M 637.8 727.0 C 653.3 727.0, 653.3 712.5, 668.8 712.5" fill="none" stroke="hsl(72.0, 58%, 62%)" stroke-width="1.6" stroke-linecap="round"/>
<path d="M 637.8 727.0 C 653.3 727.0, 653.3 741.5, 668.8 741.5" fill="none" stroke="hsl(72.0, 58%, 62%)" stroke-width="1.6" stroke-linecap="round"/>
<path d="M 440.1 773.5 C 460.6 773.5, 460.6 787.0, 481.1 787.0" fill="none" stroke="hsl(72.0, 58%, 62%)" stroke-width="1.9" stroke-linecap="round"/>
<path d="M 542.3 787.0 C 560.3 787.0, 560.3 771.5, 578.3 771.5" fill="none" stroke="hsl(72.0, 58%, 62%)" stroke-width="1.7" stroke-linecap="round"/>
<path d="M 542.3 787.0 C 560.3 787.0, 560.3 802.5, 578.3 802.5" fill="none" stroke="hsl(72.0, 58%, 62%)" stroke-width="1.7" stroke-linecap="round"/>
<path d="M 440.1 773.5 C 460.6 773.5, 460.6 849.0, 481.1 849.0" fill="none" stroke="hsl(72.0, 58%, 62%)" stroke-width="1.9" stroke-linecap="round"/>
<path d="M 557.6 849.0 C 575.6 849.0, 575.6 833.5, 593.6 833.5" fill="none" stroke="hsl(72.0, 58%, 62%)" stroke-width="1.7" stroke-linecap="round"/>
<path d="M 557.6 849.0 C 575.6 849.0, 575.6 864.5, 593.6 864.5" fill="none" stroke="hsl(72.0, 58%, 62%)" stroke-width="1.7" stroke-linecap="round"/>
<path d="M 296.7 857.9 C 319.7 857.9, 319.7 942.0, 342.7 942.0" fill="none" stroke="hsl(132.0, 58%, 62%)" stroke-width="2.6" stroke-linecap="round"/>
<path d="M 440.1 942.0 C 460.6 942.0, 460.6 911.0, 481.1 911.0" fill="none" stroke="hsl(132.0, 58%, 62%)" stroke-width="1.9" stroke-linecap="round"/>
<path d="M 577.4 911.0 C 595.4 911.0, 595.4 895.5, 613.4 895.5" fill="none" stroke="hsl(132.0, 58%, 62%)" stroke-width="1.7" stroke-linecap="round"/>
<path d="M 577.4 911.0 C 595.4 911.0, 595.4 926.5, 613.4 926.5" fill="none" stroke="hsl(132.0, 58%, 62%)" stroke-width="1.7" stroke-linecap="round"/>
<path d="M 440.1 942.0 C 460.6 942.0, 460.6 973.0, 481.1 973.0" fill="none" stroke="hsl(132.0, 58%, 62%)" stroke-width="1.9" stroke-linecap="round"/>
<path d="M 573.5 973.0 C 591.5 973.0, 591.5 957.5, 609.5 957.5" fill="none" stroke="hsl(132.0, 58%, 62%)" stroke-width="1.7" stroke-linecap="round"/>
<path d="M 573.5 973.0 C 591.5 973.0, 591.5 988.5, 609.5 988.5" fill="none" stroke="hsl(132.0, 58%, 62%)" stroke-width="1.7" stroke-linecap="round"/>
<path d="M 296.7 857.9 C 319.7 857.9, 319.7 1073.8, 342.7 1073.8" fill="none" stroke="hsl(192.0, 58%, 62%)" stroke-width="2.6" stroke-linecap="round"/>
<path d="M 440.1 1073.8 C 460.6 1073.8, 460.6 1035.0, 481.1 1035.0" fill="none" stroke="hsl(192.0, 58%, 62%)" stroke-width="1.9" stroke-linecap="round"/>
<path d="M 560.7 1035.0 C 578.7 1035.0, 578.7 1019.5, 596.7 1019.5" fill="none" stroke="hsl(192.0, 58%, 62%)" stroke-width="1.7" stroke-linecap="round"/>
<path d="M 560.7 1035.0 C 578.7 1035.0, 578.7 1050.5, 596.7 1050.5" fill="none" stroke="hsl(192.0, 58%, 62%)" stroke-width="1.7" stroke-linecap="round"/>
<path d="M 440.1 1073.8 C 460.6 1073.8, 460.6 1112.5, 481.1 1112.5" fill="none" stroke="hsl(192.0, 58%, 62%)" stroke-width="1.9" stroke-linecap="round"/>
<path d="M 591.0 1112.5 C 609.0 1112.5, 609.0 1081.5, 627.0 1081.5" fill="none" stroke="hsl(192.0, 58%, 62%)" stroke-width="1.7" stroke-linecap="round"/>
<path d="M 591.0 1112.5 C 609.0 1112.5, 609.0 1112.5, 627.0 1112.5" fill="none" stroke="hsl(192.0, 58%, 62%)" stroke-width="1.7" stroke-linecap="round"/>
<path d="M 591.0 1112.5 C 609.0 1112.5, 609.0 1143.5, 627.0 1143.5" fill="none" stroke="hsl(192.0, 58%, 62%)" stroke-width="1.7" stroke-linecap="round"/>
<path d="M 296.7 857.9 C 319.7 857.9, 319.7 1221.0, 342.7 1221.0" fill="none" stroke="hsl(252.0, 58%, 62%)" stroke-width="2.6" stroke-linecap="round"/>
<path d="M 440.1 1221.0 C 460.6 1221.0, 460.6 1190.0, 481.1 1190.0" fill="none" stroke="hsl(252.0, 58%, 62%)" stroke-width="1.9" stroke-linecap="round"/>
<path d="M 557.6 1190.0 C 575.6 1190.0, 575.6 1174.5, 593.6 1174.5" fill="none" stroke="hsl(252.0, 58%, 62%)" stroke-width="1.7" stroke-linecap="round"/>
<path d="M 557.6 1190.0 C 575.6 1190.0, 575.6 1205.5, 593.6 1205.5" fill="none" stroke="hsl(252.0, 58%, 62%)" stroke-width="1.7" stroke-linecap="round"/>
<path d="M 440.1 1221.0 C 460.6 1221.0, 460.6 1252.0, 481.1 1252.0" fill="none" stroke="hsl(252.0, 58%, 62%)" stroke-width="1.9" stroke-linecap="round"/>
<path d="M 542.3 1252.0 C 560.3 1252.0, 560.3 1236.5, 578.3 1236.5" fill="none" stroke="hsl(252.0, 58%, 62%)" stroke-width="1.7" stroke-linecap="round"/>
<path d="M 542.3 1252.0 C 560.3 1252.0, 560.3 1267.5, 578.3 1267.5" fill="none" stroke="hsl(252.0, 58%, 62%)" stroke-width="1.7" stroke-linecap="round"/>
<path d="M 296.7 857.9 C 319.7 857.9, 319.7 1345.0, 342.7 1345.0" fill="none" stroke="hsl(312.0, 58%, 62%)" stroke-width="2.6" stroke-linecap="round"/>
<path d="M 440.1 1345.0 C 460.6 1345.0, 460.6 1314.0, 481.1 1314.0" fill="none" stroke="hsl(312.0, 58%, 62%)" stroke-width="1.9" stroke-linecap="round"/>
<path d="M 542.3 1314.0 C 560.3 1314.0, 560.3 1298.5, 578.3 1298.5" fill="none" stroke="hsl(312.0, 58%, 62%)" stroke-width="1.7" stroke-linecap="round"/>
<path d="M 542.3 1314.0 C 560.3 1314.0, 560.3 1329.5, 578.3 1329.5" fill="none" stroke="hsl(312.0, 58%, 62%)" stroke-width="1.7" stroke-linecap="round"/>
<path d="M 440.1 1345.0 C 460.6 1345.0, 460.6 1376.0, 481.1 1376.0" fill="none" stroke="hsl(312.0, 58%, 62%)" stroke-width="1.9" stroke-linecap="round"/>
<path d="M 542.3 1376.0 C 560.3 1376.0, 560.3 1360.5, 578.3 1360.5" fill="none" stroke="hsl(312.0, 58%, 62%)" stroke-width="1.7" stroke-linecap="round"/>
<path d="M 542.3 1376.0 C 560.3 1376.0, 560.3 1391.5, 578.3 1391.5" fill="none" stroke="hsl(312.0, 58%, 62%)" stroke-width="1.7" stroke-linecap="round"/>
<rect x="44.0" y="838.9" width="252.7" height="38.0" rx="19.0" ry="19.0" fill="hsl(215, 12%, 24%)"/>
<text x="58.0" y="857.9" font-size="21.0" font-weight="600" fill="#ffffff" dominant-baseline="central">SSK-AIMeeting 一体机</text>
<rect x="342.7" y="355.7" width="97.4" height="30.0" rx="15.0" ry="15.0" fill="hsl(12.0, 62%, 44%)"/>
<text x="356.7" y="370.7" font-size="17.0" font-weight="600" fill="#ffffff" dominant-baseline="central">语音前端</text>
<text x="481.1" y="154.7" font-size="15.0" font-weight="600" fill="#1f2328" dominant-baseline="central">麦克风阵列</text>
<line x1="481.1" y1="164.0" x2="557.6" y2="164.0" stroke="hsl(12.0, 52%, 58%)" stroke-width="1.5" stroke-linecap="round"/>
<text x="593.6" y="110.3" font-size="13.5" font-weight="500" fill="#3c4148" dominant-baseline="central">阵列拓扑</text>
<line x1="593.6" y1="118.7" x2="648.6" y2="118.7" stroke="hsl(12.0, 52%, 65%)" stroke-width="1.5" stroke-linecap="round"/>
<text x="679.6" y="86.1" font-size="12.5" font-weight="500" fill="#4e545c" dominant-baseline="central">环形 8 麦阵列</text>
<line x1="679.6" y1="93.9" x2="758.1" y2="93.9" stroke="hsl(12.0, 52%, 72%)" stroke-width="1.5" stroke-linecap="round"/>
<text x="784.1" y="66.0" font-size="12.0" font-weight="400" fill="#61676f" dominant-baseline="central">阵列半径 45mm</text>
<line x1="784.1" y1="73.4" x2="863.8" y2="73.4" stroke="hsl(12.0, 52%, 79%)" stroke-width="1.5" stroke-linecap="round"/>
<text x="885.8" y="52.8" font-size="11.5" font-weight="400" fill="#737980" dominant-baseline="central">波束宽度 60°</text>
<line x1="885.8" y1="59.9" x2="955.9" y2="59.9" stroke="hsl(12.0, 52%, 86%)" stroke-width="1.5" stroke-linecap="round"/>
<text x="885.8" y="79.2" font-size="11.5" font-weight="400" fill="#737980" dominant-baseline="central">指向性指数 8dB</text>
<line x1="885.8" y1="86.4" x2="968.7" y2="86.4" stroke="hsl(12.0, 52%, 86%)" stroke-width="1.5" stroke-linecap="round"/>
<text x="784.1" y="106.2" font-size="12.0" font-weight="400" fill="#61676f" dominant-baseline="central">差分拾音</text>
<line x1="784.1" y1="113.7" x2="833.1" y2="113.7" stroke="hsl(12.0, 52%, 79%)" stroke-width="1.5" stroke-linecap="round"/>
<text x="679.6" y="134.5" font-size="12.5" font-weight="500" fill="#4e545c" dominant-baseline="central">线性 4 麦阵列</text>
<line x1="679.6" y1="142.2" x2="758.1" y2="142.2" stroke="hsl(12.0, 52%, 72%)" stroke-width="1.5" stroke-linecap="round"/>
<text x="593.6" y="199.0" font-size="13.5" font-weight="500" fill="#3c4148" dominant-baseline="central">拾音参数</text>
<line x1="593.6" y1="207.4" x2="648.6" y2="207.4" stroke="hsl(12.0, 52%, 65%)" stroke-width="1.5" stroke-linecap="round"/>
<text x="679.6" y="163.5" font-size="12.5" font-weight="500" fill="#4e545c" dominant-baseline="central">采样率 16kHz</text>
<line x1="679.6" y1="171.2" x2="758.4" y2="171.2" stroke="hsl(12.0, 52%, 72%)" stroke-width="1.5" stroke-linecap="round"/>
<text x="679.6" y="192.5" font-size="12.5" font-weight="500" fill="#4e545c" dominant-baseline="central">位深 24bit</text>
<line x1="679.6" y1="200.2" x2="741.1" y2="200.2" stroke="hsl(12.0, 52%, 72%)" stroke-width="1.5" stroke-linecap="round"/>
<text x="679.6" y="234.5" font-size="12.5" font-weight="500" fill="#4e545c" dominant-baseline="central">增益控制</text>
<line x1="679.6" y1="242.2" x2="730.6" y2="242.2" stroke="hsl(12.0, 52%, 72%)" stroke-width="1.5" stroke-linecap="round"/>
<text x="756.6" y="220.8" font-size="12.0" font-weight="400" fill="#61676f" dominant-baseline="central">AGC 自动增益</text>
<line x1="756.6" y1="228.2" x2="833.7" y2="228.2" stroke="hsl(12.0, 52%, 79%)" stroke-width="1.5" stroke-linecap="round"/>
<text x="756.6" y="248.2" font-size="12.0" font-weight="400" fill="#61676f" dominant-baseline="central">静音门限 -45dB</text>
<line x1="756.6" y1="255.7" x2="844.5" y2="255.7" stroke="hsl(12.0, 52%, 79%)" stroke-width="1.5" stroke-linecap="round"/>
<text x="481.1" y="400.8" font-size="15.0" font-weight="600" fill="#1f2328" dominant-baseline="central">3A 算法</text>
<line x1="481.1" y1="410.1" x2="535.1" y2="410.1" stroke="hsl(12.0, 52%, 58%)" stroke-width="1.5" stroke-linecap="round"/>
<text x="571.1" y="310.5" font-size="13.5" font-weight="500" fill="#3c4148" dominant-baseline="central">AEC 回声消除</text>
<line x1="571.1" y1="318.9" x2="657.7" y2="318.9" stroke="hsl(12.0, 52%, 65%)" stroke-width="1.5" stroke-linecap="round"/>
<text x="688.7" y="289.5" font-size="12.5" font-weight="500" fill="#4e545c" dominant-baseline="central">参考信号对齐</text>
<line x1="688.7" y1="297.2" x2="765.2" y2="297.2" stroke="hsl(12.0, 52%, 72%)" stroke-width="1.5" stroke-linecap="round"/>
<text x="791.2" y="275.8" font-size="12.0" font-weight="400" fill="#61676f" dominant-baseline="central">延迟估计 40ms</text>
<line x1="791.2" y1="283.2" x2="870.9" y2="283.2" stroke="hsl(12.0, 52%, 79%)" stroke-width="1.5" stroke-linecap="round"/>
<text x="791.2" y="303.2" font-size="12.0" font-weight="400" fill="#61676f" dominant-baseline="central">双讲检测</text>
<line x1="791.2" y1="310.7" x2="840.2" y2="310.7" stroke="hsl(12.0, 52%, 79%)" stroke-width="1.5" stroke-linecap="round"/>
<text x="688.7" y="331.5" font-size="12.5" font-weight="500" fill="#4e545c" dominant-baseline="central">非线性残留抑制</text>
<line x1="688.7" y1="339.2" x2="778.0" y2="339.2" stroke="hsl(12.0, 52%, 72%)" stroke-width="1.5" stroke-linecap="round"/>
<text x="571.1" y="375.0" font-size="13.5" font-weight="500" fill="#3c4148" dominant-baseline="central">ANS 降噪</text>
<line x1="571.1" y1="383.4" x2="630.2" y2="383.4" stroke="hsl(12.0, 52%, 65%)" stroke-width="1.5" stroke-linecap="round"/>
<text x="661.2" y="360.5" font-size="12.5" font-weight="500" fill="#4e545c" dominant-baseline="central">稳态噪声抑制</text>
<line x1="661.2" y1="368.2" x2="737.7" y2="368.2" stroke="hsl(12.0, 52%, 72%)" stroke-width="1.5" stroke-linecap="round"/>
<text x="661.2" y="389.5" font-size="12.5" font-weight="500" fill="#4e545c" dominant-baseline="central">瞬态噪声抑制</text>
<line x1="661.2" y1="397.2" x2="737.7" y2="397.2" stroke="hsl(12.0, 52%, 72%)" stroke-width="1.5" stroke-linecap="round"/>
<text x="571.1" y="433.0" font-size="13.5" font-weight="500" fill="#3c4148" dominant-baseline="central">Beamforming 波束成形</text>
<line x1="571.1" y1="441.4" x2="710.5" y2="441.4" stroke="hsl(12.0, 52%, 65%)" stroke-width="1.5" stroke-linecap="round"/>
<text x="741.5" y="418.5" font-size="12.5" font-weight="500" fill="#4e545c" dominant-baseline="central">MVDR 自适应</text>
<line x1="741.5" y1="426.2" x2="817.5" y2="426.2" stroke="hsl(12.0, 52%, 72%)" stroke-width="1.5" stroke-linecap="round"/>
<text x="741.5" y="447.5" font-size="12.5" font-weight="500" fill="#4e545c" dominant-baseline="central">声源跟踪</text>
<line x1="741.5" y1="455.2" x2="792.5" y2="455.2" stroke="hsl(12.0, 52%, 72%)" stroke-width="1.5" stroke-linecap="round"/>
<text x="571.1" y="491.0" font-size="13.5" font-weight="500" fill="#3c4148" dominant-baseline="central">DOA 声源定位</text>
<line x1="571.1" y1="499.4" x2="657.7" y2="499.4" stroke="hsl(12.0, 52%, 65%)" stroke-width="1.5" stroke-linecap="round"/>
<text x="688.7" y="476.5" font-size="12.5" font-weight="500" fill="#4e545c" dominant-baseline="central">方位角估计</text>
<line x1="688.7" y1="484.2" x2="752.5" y2="484.2" stroke="hsl(12.0, 52%, 72%)" stroke-width="1.5" stroke-linecap="round"/>
<text x="688.7" y="505.5" font-size="12.5" font-weight="500" fill="#4e545c" dominant-baseline="central">俯仰角估计</text>
<line x1="688.7" y1="513.2" x2="752.5" y2="513.2" stroke="hsl(12.0, 52%, 72%)" stroke-width="1.5" stroke-linecap="round"/>
<text x="481.1" y="586.8" font-size="15.0" font-weight="600" fill="#1f2328" dominant-baseline="central">声纹识别</text>
<line x1="481.1" y1="596.0" x2="542.3" y2="596.0" stroke="#e07b1f" stroke-width="2.6" stroke-linecap="round"/>
<text x="578.3" y="549.0" font-size="13.5" font-weight="500" fill="#3c4148" dominant-baseline="central">声纹注册</text>
<line x1="578.3" y1="557.4" x2="633.3" y2="557.4" stroke="hsl(12.0, 52%, 65%)" stroke-width="1.5" stroke-linecap="round"/>
<text x="664.3" y="534.5" font-size="12.5" font-weight="500" fill="#4e545c" dominant-baseline="central">声纹入库</text>
<line x1="664.3" y1="542.2" x2="715.3" y2="542.2" stroke="hsl(12.0, 52%, 72%)" stroke-width="1.5" stroke-linecap="round"/>
<text x="664.3" y="563.5" font-size="12.5" font-weight="500" fill="#4e545c" dominant-baseline="central">阈值标定</text>
<line x1="664.3" y1="571.2" x2="715.3" y2="571.2" stroke="hsl(12.0, 52%, 72%)" stroke-width="1.5" stroke-linecap="round"/>
<text x="578.3" y="593.5" font-size="13.5" font-weight="500" fill="#3c4148" dominant-baseline="central">说话人分离</text>
<line x1="578.3" y1="601.9" x2="647.1" y2="601.9" stroke="hsl(12.0, 52%, 65%)" stroke-width="1.5" stroke-linecap="round"/>
<text x="578.3" y="624.5" font-size="13.5" font-weight="500" fill="#3c4148" dominant-baseline="central">声纹比对</text>
<line x1="578.3" y1="632.9" x2="633.3" y2="632.9" stroke="hsl(12.0, 52%, 65%)" stroke-width="1.5" stroke-linecap="round"/>
<rect x="342.7" y="758.5" width="97.4" height="30.0" rx="15.0" ry="15.0" fill="hsl(72.0, 62%, 44%)"/>
<text x="356.7" y="773.5" font-size="17.0" font-weight="600" fill="#ffffff" dominant-baseline="central">会议引擎</text>
<text x="481.1" y="698.0" font-size="15.0" font-weight="600" fill="#1f2328" dominant-baseline="central">转写 ASR</text>
<line x1="481.1" y1="707.3" x2="546.8" y2="707.3" stroke="hsl(72.0, 52%, 58%)" stroke-width="1.5" stroke-linecap="round"/>
<text x="582.8" y="669.0" font-size="13.5" font-weight="500" fill="#3c4148" dominant-baseline="central">流式识别</text>
<line x1="582.8" y1="677.4" x2="637.8" y2="677.4" stroke="hsl(72.0, 52%, 65%)" stroke-width="1.5" stroke-linecap="round"/>
<text x="668.8" y="654.5" font-size="12.5" font-weight="500" fill="#4e545c" dominant-baseline="central">分片 200ms</text>
<line x1="668.8" y1="662.2" x2="733.6" y2="662.2" stroke="hsl(72.0, 52%, 72%)" stroke-width="1.5" stroke-linecap="round"/>
<text x="668.8" y="683.5" font-size="12.5" font-weight="500" fill="#4e545c" dominant-baseline="central">上下文窗口 5 段</text>
<line x1="668.8" y1="691.2" x2="760.1" y2="691.2" stroke="hsl(72.0, 52%, 72%)" stroke-width="1.5" stroke-linecap="round"/>
<text x="582.8" y="727.0" font-size="13.5" font-weight="500" fill="#3c4148" dominant-baseline="central">热词增强</text>
<line x1="582.8" y1="735.4" x2="637.8" y2="735.4" stroke="hsl(72.0, 52%, 65%)" stroke-width="1.5" stroke-linecap="round"/>
<text x="668.8" y="712.5" font-size="12.5" font-weight="500" fill="#4e545c" dominant-baseline="central">领域词表</text>
<line x1="668.8" y1="720.2" x2="719.8" y2="720.2" stroke="hsl(72.0, 52%, 72%)" stroke-width="1.5" stroke-linecap="round"/>
<text x="668.8" y="741.5" font-size="12.5" font-weight="500" fill="#4e545c" dominant-baseline="central">动态加权</text>
<line x1="668.8" y1="749.2" x2="719.8" y2="749.2" stroke="hsl(72.0, 52%, 72%)" stroke-width="1.5" stroke-linecap="round"/>
<text x="481.1" y="787.0" font-size="15.0" font-weight="600" fill="#1f2328" dominant-baseline="central">纪要生成</text>
<line x1="481.1" y1="796.3" x2="542.3" y2="796.3" stroke="hsl(72.0, 52%, 58%)" stroke-width="1.5" stroke-linecap="round"/>
<text x="578.3" y="771.5" font-size="13.5" font-weight="500" fill="#3c4148" dominant-baseline="central">要点抽取</text>
<line x1="578.3" y1="779.9" x2="633.3" y2="779.9" stroke="hsl(72.0, 52%, 65%)" stroke-width="1.5" stroke-linecap="round"/>
<text x="578.3" y="802.5" font-size="13.5" font-weight="500" fill="#3c4148" dominant-baseline="central">待办识别</text>
<line x1="578.3" y1="810.9" x2="633.3" y2="810.9" stroke="hsl(72.0, 52%, 65%)" stroke-width="1.5" stroke-linecap="round"/>
<text x="481.1" y="849.0" font-size="15.0" font-weight="600" fill="#1f2328" dominant-baseline="central">说话人归因</text>
<line x1="481.1" y1="858.3" x2="557.6" y2="858.3" stroke="hsl(72.0, 52%, 58%)" stroke-width="1.5" stroke-linecap="round"/>
<text x="593.6" y="833.5" font-size="13.5" font-weight="500" fill="#3c4148" dominant-baseline="central">时间戳对齐</text>
<line x1="593.6" y1="841.9" x2="662.4" y2="841.9" stroke="hsl(72.0, 52%, 65%)" stroke-width="1.5" stroke-linecap="round"/>
<text x="593.6" y="864.5" font-size="13.5" font-weight="500" fill="#3c4148" dominant-baseline="central">声纹匹配</text>
<line x1="593.6" y1="872.9" x2="648.6" y2="872.9" stroke="hsl(72.0, 52%, 65%)" stroke-width="1.5" stroke-linecap="round"/>
<rect x="342.7" y="927.0" width="97.4" height="30.0" rx="15.0" ry="15.0" fill="hsl(132.0, 62%, 44%)"/>
<text x="356.7" y="942.0" font-size="17.0" font-weight="600" fill="#ffffff" dominant-baseline="central">实时通信</text>
<text x="481.1" y="911.0" font-size="15.0" font-weight="600" fill="#1f2328" dominant-baseline="central">SFU 媒体转发</text>
<line x1="481.1" y1="920.3" x2="577.4" y2="920.3" stroke="hsl(132.0, 52%, 58%)" stroke-width="1.5" stroke-linecap="round"/>
<text x="613.4" y="895.5" font-size="13.5" font-weight="500" fill="#3c4148" dominant-baseline="central">mediasoup Worker</text>
<line x1="613.4" y1="903.9" x2="727.4" y2="903.9" stroke="hsl(132.0, 52%, 65%)" stroke-width="1.5" stroke-linecap="round"/>
<text x="613.4" y="926.5" font-size="13.5" font-weight="500" fill="#3c4148" dominant-baseline="central">房间管理</text>
<line x1="613.4" y1="934.9" x2="668.4" y2="934.9" stroke="hsl(132.0, 52%, 65%)" stroke-width="1.5" stroke-linecap="round"/>
<text x="481.1" y="973.0" font-size="15.0" font-weight="600" fill="#1f2328" dominant-baseline="central">WebRTC 接入</text>
<line x1="481.1" y1="982.3" x2="573.5" y2="982.3" stroke="hsl(132.0, 52%, 58%)" stroke-width="1.5" stroke-linecap="round"/>
<text x="609.5" y="957.5" font-size="13.5" font-weight="500" fill="#3c4148" dominant-baseline="central">ICE 穿透</text>
<line x1="609.5" y1="965.9" x2="663.7" y2="965.9" stroke="hsl(132.0, 52%, 65%)" stroke-width="1.5" stroke-linecap="round"/>
<text x="609.5" y="988.5" font-size="13.5" font-weight="500" fill="#3c4148" dominant-baseline="central">拥塞控制</text>
<line x1="609.5" y1="996.9" x2="664.5" y2="996.9" stroke="hsl(132.0, 52%, 65%)" stroke-width="1.5" stroke-linecap="round"/>
<rect x="342.7" y="1058.8" width="97.4" height="30.0" rx="15.0" ry="15.0" fill="hsl(192.0, 62%, 44%)"/>
<text x="356.7" y="1073.8" font-size="17.0" font-weight="600" fill="#ffffff" dominant-baseline="central">算力平台</text>
<text x="481.1" y="1035.0" font-size="15.0" font-weight="600" fill="#1f2328" dominant-baseline="central">Nvidia GPU</text>
<line x1="481.1" y1="1044.3" x2="560.7" y2="1044.3" stroke="hsl(192.0, 52%, 58%)" stroke-width="1.5" stroke-linecap="round"/>
<text x="596.7" y="1019.5" font-size="13.5" font-weight="500" fill="#3c4148" dominant-baseline="central">TensorRT 推理</text>
<line x1="596.7" y1="1027.9" x2="693.0" y2="1027.9" stroke="hsl(192.0, 52%, 65%)" stroke-width="1.5" stroke-linecap="round"/>
<text x="596.7" y="1050.5" font-size="13.5" font-weight="500" fill="#3c4148" dominant-baseline="central">CUDA 加速</text>
<line x1="596.7" y1="1058.9" x2="665.0" y2="1058.9" stroke="hsl(192.0, 52%, 65%)" stroke-width="1.5" stroke-linecap="round"/>
<text x="481.1" y="1112.5" font-size="15.0" font-weight="600" fill="#1f2328" dominant-baseline="central">华为 Atlas NPU</text>
<line x1="481.1" y1="1121.8" x2="591.0" y2="1121.8" stroke="hsl(192.0, 52%, 58%)" stroke-width="1.5" stroke-linecap="round"/>
<text x="627.0" y="1081.5" font-size="13.5" font-weight="500" fill="#3c4148" dominant-baseline="central">昇腾 300I Duo</text>
<line x1="627.0" y1="1089.9" x2="714.5" y2="1089.9" stroke="hsl(192.0, 52%, 65%)" stroke-width="1.5" stroke-linecap="round"/>
<text x="627.0" y="1112.5" font-size="13.5" font-weight="500" fill="#3c4148" dominant-baseline="central">昇腾 910B</text>
<line x1="627.0" y1="1120.9" x2="691.3" y2="1120.9" stroke="hsl(192.0, 52%, 65%)" stroke-width="1.5" stroke-linecap="round"/>
<text x="627.0" y="1143.5" font-size="13.5" font-weight="500" fill="#3c4148" dominant-baseline="central">CANN 算子</text>
<line x1="627.0" y1="1151.9" x2="695.3" y2="1151.9" stroke="hsl(192.0, 52%, 65%)" stroke-width="1.5" stroke-linecap="round"/>
<rect x="342.7" y="1206.0" width="97.4" height="30.0" rx="15.0" ry="15.0" fill="hsl(252.0, 62%, 44%)"/>
<text x="356.7" y="1221.0" font-size="17.0" font-weight="600" fill="#ffffff" dominant-baseline="central">交付形态</text>
<text x="481.1" y="1190.0" font-size="15.0" font-weight="600" fill="#1f2328" dominant-baseline="central">一体机硬件</text>
<line x1="481.1" y1="1199.3" x2="557.6" y2="1199.3" stroke="hsl(252.0, 52%, 58%)" stroke-width="1.5" stroke-linecap="round"/>
<text x="593.6" y="1174.5" font-size="13.5" font-weight="500" fill="#3c4148" dominant-baseline="central">鲲鹏 920 CPU</text>
<line x1="593.6" y1="1182.9" x2="680.2" y2="1182.9" stroke="hsl(252.0, 52%, 65%)" stroke-width="1.5" stroke-linecap="round"/>
<text x="593.6" y="1205.5" font-size="13.5" font-weight="500" fill="#3c4148" dominant-baseline="central">昇腾算力卡</text>
<line x1="593.6" y1="1213.9" x2="662.4" y2="1213.9" stroke="hsl(252.0, 52%, 65%)" stroke-width="1.5" stroke-linecap="round"/>
<text x="481.1" y="1252.0" font-size="15.0" font-weight="600" fill="#1f2328" dominant-baseline="central">部署方式</text>
<line x1="481.1" y1="1261.3" x2="542.3" y2="1261.3" stroke="hsl(252.0, 52%, 58%)" stroke-width="1.5" stroke-linecap="round"/>
<text x="578.3" y="1236.5" font-size="13.5" font-weight="500" fill="#3c4148" dominant-baseline="central">单机部署</text>
<line x1="578.3" y1="1244.9" x2="633.3" y2="1244.9" stroke="hsl(252.0, 52%, 65%)" stroke-width="1.5" stroke-linecap="round"/>
<text x="578.3" y="1267.5" font-size="13.5" font-weight="500" fill="#3c4148" dominant-baseline="central">集群部署</text>
<line x1="578.3" y1="1275.9" x2="633.3" y2="1275.9" stroke="hsl(252.0, 52%, 65%)" stroke-width="1.5" stroke-linecap="round"/>
<rect x="342.7" y="1330.0" width="97.4" height="30.0" rx="15.0" ry="15.0" fill="hsl(312.0, 62%, 44%)"/>
<text x="356.7" y="1345.0" font-size="17.0" font-weight="600" fill="#ffffff" dominant-baseline="central">版本管理</text>
<text x="481.1" y="1314.0" font-size="15.0" font-weight="600" fill="#1f2328" dominant-baseline="central">命名规范</text>
<line x1="481.1" y1="1323.3" x2="542.3" y2="1323.3" stroke="hsl(312.0, 52%, 58%)" stroke-width="1.5" stroke-linecap="round"/>
<text x="578.3" y="1298.5" font-size="13.5" font-weight="500" fill="#3c4148" dominant-baseline="central">SSK-AIMeeting-V1.x.x</text>
<line x1="578.3" y1="1306.9" x2="725.3" y2="1306.9" stroke="hsl(312.0, 52%, 65%)" stroke-width="1.5" stroke-linecap="round"/>
<text x="578.3" y="1329.5" font-size="13.5" font-weight="500" fill="#3c4148" dominant-baseline="central">算力平台后缀</text>
<line x1="578.3" y1="1337.9" x2="660.9" y2="1337.9" stroke="hsl(312.0, 52%, 65%)" stroke-width="1.5" stroke-linecap="round"/>
<text x="481.1" y="1376.0" font-size="15.0" font-weight="600" fill="#1f2328" dominant-baseline="central">发版流程</text>
<line x1="481.1" y1="1385.3" x2="542.3" y2="1385.3" stroke="hsl(312.0, 52%, 58%)" stroke-width="1.5" stroke-linecap="round"/>
<text x="578.3" y="1360.5" font-size="13.5" font-weight="500" fill="#3c4148" dominant-baseline="central">特性分支</text>
<line x1="578.3" y1="1368.9" x2="633.3" y2="1368.9" stroke="hsl(312.0, 52%, 65%)" stroke-width="1.5" stroke-linecap="round"/>
<text x="578.3" y="1391.5" font-size="13.5" font-weight="500" fill="#3c4148" dominant-baseline="central">版本冻结</text>
<line x1="578.3" y1="1399.9" x2="633.3" y2="1399.9" stroke="hsl(312.0, 52%, 65%)" stroke-width="1.5" stroke-linecap="round"/>
</svg>